<svg width="400" height="400" viewBox="0 0 400 400" fill="none" xmlns="http://www.w3.org/2000/svg">
<g clip-path="url(#clip0_1_8)">
<path fill-rule="evenodd" clip-rule="evenodd" d="M187.4 42.839C179.958 43.618 176.659 44.092 168.2 45.603C165.148 46.148 155.921 48.579 151.6 49.978C148.772 50.892 144.109 52.58 142.2 53.38C141.54 53.657 139.74 54.398 138.2 55.029C107.772 67.481 79.9441 92.384 62.6881 122.6C60.7501 125.994 55.7691 136.182 54.5721 139.2C54.1801 140.19 53.5471 141.72 53.1671 142.6C50.7681 148.149 46.5141 162.993 45.2011 170.4C44.9471 171.83 44.5841 173.81 44.3951 174.8C44.0041 176.841 43.3911 182.14 42.8011 188.569C42.2871 194.174 42.2851 206.906 42.7981 211.916C43.6171 219.918 44.0841 223.521 44.8561 227.8C45.5911 231.87 47.5921 240.593 48.4341 243.4C49.5891 247.251 52.9201 257.062 53.1871 257.4C53.3601 257.62 53.6361 258.25 53.7991 258.8C54.0821 259.755 54.3731 260.448 56.3991 265C74.5111 305.679 115.139 341.064 155.4 351.226C156.06 351.392 158.76 352.097 161.4 352.791C185.072 359.017 215.591 359.086 238.3 352.966C239.455 352.655 241.435 352.124 242.7 351.787C277.024 342.642 310.477 318.462 330.672 288.2C335.871 280.409 344.8 264.039 344.8 262.298C344.8 262.002 344.953 261.589 345.14 261.38C345.902 260.53 350.419 247.835 351.787 242.7C352.124 241.435 352.658 239.449 352.973 238.286C359.063 215.798 359.008 185.468 352.835 161.6C352.18 159.07 351.53 156.55 351.389 156C343.243 124.127 318.044 89.397 288.8 69.739C285.387 67.444 279.225 63.6 278.96 63.6C278.863 63.6 278.095 63.165 277.253 62.633C275.593 61.586 268.111 57.775 265.2 56.495C264.21 56.059 262.23 55.207 260.8 54.6C259.37 53.994 257.611 53.24 256.892 52.926C255.489 52.313 246.586 49.314 244.6 48.786C223.634 43.206 203.704 41.134 187.4 42.839ZM198.2 126.423C206.461 127.017 219.073 128.345 224.2 129.161C225.52 129.371 227.915 129.736 229.522 129.973C255.053 133.733 283.408 143.034 304.6 154.6C314.391 159.944 317.677 166.765 314.421 174.99C311.481 182.418 301.426 186.348 294.6 182.736C288.794 179.664 277.569 174.054 276 173.44C275.01 173.052 273.66 172.5 273 172.215C266.804 169.531 253.426 165.235 245 163.222C243.9 162.96 242.01 162.499 240.8 162.2C238.311 161.583 230.144 160.034 223 158.824C188.252 152.936 144.261 154.571 114 162.873C108.958 164.256 107.782 164.444 105 164.308C90.7691 163.614 85.9941 145.233 98.0001 137.362C103.894 133.497 132.163 128.13 155.4 126.463C162.507 125.953 191.288 125.927 198.2 126.423ZM186.4 180.388C207.619 181.494 228.147 185.299 247.645 191.74C269.746 199.041 289.479 209.309 292.119 214.882C297.781 226.838 284.397 237.53 273.2 229.995C269.779 227.693 258.46 222.084 252.2 219.59C227.358 209.69 200.987 204.787 172.668 204.805C154.125 204.817 137.925 207.004 119.2 212.023C114.147 213.378 112.424 213.379 109.37 212.028C98.8101 207.357 99.521 192.781 110.492 189.057C129.803 182.502 160.244 179.026 186.4 180.388ZM191.284 232.002C193.548 232.223 197.29 232.593 199.6 232.824C217.385 234.599 237.67 240.315 254.2 248.208C259.801 250.883 269.095 256.07 270.304 257.196C277.67 264.058 271.761 276.095 261.932 274.251C261.194 274.113 258.433 272.779 255.795 271.288C235.376 259.742 215.933 253.928 190.6 251.79C179.956 250.892 159.237 251.294 150.666 252.564C149.97 252.667 147.96 252.954 146.2 253.2C140.567 253.99 132.685 255.262 129.8 255.847C128.26 256.16 125.203 256.793 123.006 257.254C113.821 259.183 108.619 255.912 108.606 248.2C108.595 242.203 111.216 239.741 119.6 237.867C142.131 232.83 173.498 230.264 191.284 232.002Z" fill="#1DDA63"/>
<path fill-rule="evenodd" clip-rule="evenodd" d="M0 200V400H200H400V200V0H200H0V200ZM213.6 42.992C226.269 44.283 231.003 45.167 244.6 48.786C246.586 49.314 255.489 52.313 256.892 52.926C257.611 53.24 259.37 53.994 260.8 54.6C262.23 55.207 264.21 56.059 265.2 56.495C268.111 57.775 275.593 61.586 277.253 62.633C278.095 63.165 278.863 63.6 278.96 63.6C279.225 63.6 285.387 67.444 288.8 69.739C318.044 89.397 343.243 124.127 351.389 156C351.53 156.55 352.18 159.07 352.835 161.6C359.008 185.468 359.063 215.798 352.973 238.286C352.658 239.449 352.124 241.435 351.787 242.7C350.419 247.835 345.902 260.53 345.14 261.38C344.953 261.589 344.8 262.002 344.8 262.298C344.8 264.039 335.871 280.409 330.672 288.2C310.477 318.462 277.024 342.642 242.7 351.787C241.435 352.124 239.455 352.655 238.3 352.966C215.591 359.086 185.072 359.017 161.4 352.791C158.76 352.097 156.06 351.392 155.4 351.226C115.139 341.064 74.511 305.679 56.399 265C54.373 260.448 54.082 259.755 53.799 258.8C53.636 258.25 53.36 257.62 53.187 257.4C52.92 257.062 49.589 247.251 48.434 243.4C47.592 240.593 45.591 231.87 44.856 227.8C44.084 223.521 43.617 219.918 42.798 211.916C42.285 206.906 42.287 194.174 42.801 188.569C43.391 182.14 44.004 176.841 44.395 174.8C44.584 173.81 44.947 171.83 45.201 170.4C46.514 162.993 50.768 148.149 53.167 142.6C53.547 141.72 54.18 140.19 54.572 139.2C68.793 103.334 102.113 69.798 138.2 55.029C139.74 54.398 141.54 53.657 142.2 53.38C144.109 52.58 148.772 50.892 151.6 49.978C155.921 48.579 165.148 46.148 168.2 45.603C176.659 44.092 179.958 43.618 187.4 42.839C192.82 42.272 207.365 42.357 213.6 42.992ZM155.4 126.463C132.163 128.13 103.894 133.497 98 137.362C85.994 145.233 90.769 163.614 105 164.308C107.782 164.444 108.958 164.256 114 162.873C144.261 154.571 188.252 152.936 223 158.824C230.144 160.034 238.311 161.583 240.8 162.2C242.01 162.499 243.9 162.96 245 163.222C253.426 165.235 266.804 169.531 273 172.215C273.66 172.5 275.01 173.052 276 173.44C277.569 174.054 288.794 179.664 294.6 182.736C301.426 186.348 311.481 182.418 314.421 174.99C317.677 166.765 314.391 159.944 304.6 154.6C283.408 143.034 255.053 133.733 229.522 129.973C227.915 129.736 225.52 129.371 224.2 129.161C219.073 128.345 206.461 127.017 198.2 126.423C191.288 125.927 162.507 125.953 155.4 126.463ZM160.2 180.429C144.51 181.174 122.418 185.009 110.492 189.057C99.521 192.781 98.81 207.357 109.37 212.028C112.424 213.379 114.147 213.378 119.2 212.023C137.925 207.004 154.125 204.817 172.668 204.805C186.203 204.797 194.925 205.503 210 207.827C225.219 210.174 245.605 216.26 258.4 222.276C264.855 225.31 271.008 228.52 273.2 229.995C284.397 237.53 297.781 226.838 292.119 214.882C290.96 212.437 288.469 210.366 282.79 207.126C265.6 197.32 244.784 189.636 223.365 185.19C202.496 180.858 182.652 179.362 160.2 180.429ZM157.382 232.22C141.658 233.491 117.636 237.547 113.6 239.611C106.7 243.14 106.786 253.426 113.745 257.068C115.717 258.1 118.694 258.159 123.006 257.254C125.203 256.793 128.26 256.16 129.8 255.847C132.685 255.262 140.567 253.99 146.2 253.2C147.96 252.954 149.97 252.667 150.666 252.564C167.034 250.138 194.939 251.129 212.078 254.746C227.803 258.064 241.723 263.331 255.795 271.288C258.433 272.779 261.194 274.113 261.932 274.251C271.761 276.095 277.67 264.058 270.304 257.196C269.095 256.07 259.801 250.883 254.2 248.208C237.67 240.315 217.385 234.599 199.6 232.824C197.29 232.593 193.548 232.223 191.284 232.002C185.668 231.453 165.235 231.585 157.382 232.22Z" fill="#1B1413"/>
<g filter="url(#filter0_f_1_8)">
<rect x="176" y="288" width="217" height="103" rx="25" fill="#D9D9D9"/>
<rect x="176" y="288" width="217" height="103" rx="25" fill="url(#paint0_linear_1_8)"/>
</g>
<g filter="url(#filter1_i_1_8)">
<path d="M209.162 315.39C210.251 315.39 211.226 315.677 212.086 316.25C213.003 316.823 213.548 317.827 213.72 319.26C214.408 323.789 214.838 328.319 215.01 332.848C215.239 337.32 215.354 342.394 215.354 348.07C215.354 350.478 215.153 354.864 214.752 361.228C217.275 361.457 219.224 361.572 220.6 361.572C221.575 361.572 223.782 361.429 227.222 361.142C229.229 360.855 230.977 360.712 232.468 360.712C233.844 360.712 235.105 360.855 236.252 361.142C237.399 361.371 238.574 361.773 239.778 362.346C240.982 363.034 241.584 364.095 241.584 365.528C241.584 366.675 241.211 367.707 240.466 368.624C239.778 369.541 238.947 370 237.972 370C237.284 370 236.195 369.885 234.704 369.656C232.009 369.255 229.429 369.054 226.964 369.054C226.161 369.054 225.244 369.111 224.212 369.226C223.237 369.283 222.521 369.312 222.062 369.312C220.686 369.484 219.31 369.57 217.934 369.57C215.125 369.57 212.602 369.427 210.366 369.14C209.219 369.025 208.073 368.595 206.926 367.85C205.779 367.047 205.206 365.901 205.206 364.41C205.206 363.55 205.321 361.343 205.55 357.788C205.951 351.883 206.152 347.382 206.152 344.286C206.152 341.878 206.037 339.355 205.808 336.718C205.579 334.081 205.435 332.418 205.378 331.73C204.862 326.857 204.604 322.843 204.604 319.69C204.604 318.199 204.948 317.11 205.636 316.422C206.381 315.734 207.557 315.39 209.162 315.39ZM262.042 322.528C261.87 326.197 261.784 329.723 261.784 333.106C261.784 336.603 262.013 341.735 262.472 348.5C262.529 349.532 262.644 351.625 262.816 354.778C262.988 357.874 263.074 360.712 263.074 363.292C263.647 363.235 264.249 363.149 264.88 363.034C265.568 362.919 266.084 362.862 266.428 362.862C267.689 362.862 268.693 363.177 269.438 363.808C270.183 364.439 270.556 365.413 270.556 366.732C270.556 367.592 270.212 368.251 269.524 368.71C268.836 369.169 267.632 369.513 265.912 369.742C264.249 369.914 261.813 370 258.602 370C255.047 370 252.381 369.885 250.604 369.656C248.827 369.427 247.594 368.997 246.906 368.366C246.218 367.678 245.874 366.675 245.874 365.356C245.874 364.381 246.189 363.722 246.82 363.378C247.451 363.034 248.339 362.862 249.486 362.862L251.292 362.948L254.13 363.12L253.7 352.972C253.356 347.468 253.184 342.423 253.184 337.836C253.184 335.371 253.27 331.988 253.442 327.688L253.614 322.958C251.665 323.073 250.145 323.13 249.056 323.13C247.795 323.13 246.935 322.901 246.476 322.442C246.075 321.983 245.874 321.037 245.874 319.604C245.874 317.999 246.963 316.967 249.142 316.508C251.378 316.049 254.761 315.82 259.29 315.82C262.787 315.82 265.396 315.935 267.116 316.164C268.893 316.393 269.782 316.909 269.782 317.712C269.782 319.661 269.352 320.951 268.492 321.582C267.689 322.155 266.113 322.442 263.762 322.442L262.042 322.528ZM275.032 319.862C275.032 317.397 276.838 316.164 280.45 316.164C281.998 316.164 284.951 316.221 289.308 316.336C294.124 316.565 297.765 316.68 300.23 316.68C302.237 316.68 304.673 316.565 307.54 316.336C309.489 316.221 310.722 316.164 311.238 316.164C314.391 316.279 317.057 316.852 319.236 317.884C319.867 318.171 320.383 318.515 320.784 318.916C321.185 319.317 321.386 319.977 321.386 320.894C321.386 322.155 320.985 323.245 320.182 324.162C319.379 325.022 318.405 325.452 317.258 325.452C315.997 325.452 314.162 325.28 311.754 324.936C309.633 324.535 307.769 324.334 306.164 324.334C304.616 324.334 303.441 324.363 302.638 324.42C302.466 326.312 302.38 330.841 302.38 338.008C302.38 346.551 302.638 355.208 303.154 363.98L303.326 366.474C303.326 368.825 301.979 370 299.284 370C297.163 370 295.729 369.513 294.984 368.538C294.239 367.506 293.866 365.958 293.866 363.894C293.866 359.823 293.751 354.749 293.522 348.672C293.293 343.627 293.178 340.043 293.178 337.922C293.178 336.489 293.35 332.103 293.694 324.764L283.632 324.85C280.421 324.85 278.185 324.563 276.924 323.99C275.663 323.359 275.032 321.983 275.032 319.862ZM367.615 364.496C367.672 365.7 367.529 366.56 367.185 367.076C366.841 367.535 366.153 368.022 365.121 368.538C363.573 369.283 361.738 369.771 359.617 370C357.553 370.229 354.887 370.344 351.619 370.344H345.771C340.668 370.344 336.884 369.484 334.419 367.764C331.954 365.987 330.406 363.865 329.775 361.4C329.144 358.935 328.772 355.753 328.657 351.854C328.6 350.535 328.571 348.586 328.571 346.006C328.571 340.387 329.058 332.877 330.033 323.474C330.32 320.722 331.323 318.744 333.043 317.54C334.763 316.279 336.712 315.648 338.891 315.648C340.668 315.648 343.564 315.591 347.577 315.476L355.145 315.39C358.241 315.39 360.477 315.476 361.853 315.648C363.573 315.992 364.863 316.393 365.723 316.852C366.583 317.253 367.042 317.97 367.099 319.002C367.099 320.149 366.726 321.267 365.981 322.356C365.236 323.445 364.089 323.99 362.541 323.99C360.764 323.99 358.212 323.875 354.887 323.646C351.562 323.417 349.039 323.302 347.319 323.302C345.771 323.302 344.366 323.388 343.105 323.56C341.5 323.675 340.353 323.875 339.665 324.162C338.977 324.449 338.604 324.936 338.547 325.624C337.916 331.873 337.658 336.231 337.773 338.696C339.092 338.868 340.41 338.954 341.729 338.954C343.048 338.954 344.854 338.839 347.147 338.61C347.72 338.553 348.437 338.495 349.297 338.438C350.157 338.381 351.132 338.352 352.221 338.352C352.852 338.352 353.855 338.409 355.231 338.524L357.897 338.61C360.534 338.61 361.853 339.556 361.853 341.448C361.853 342.595 361.538 343.512 360.907 344.2C360.276 344.888 359.158 345.404 357.553 345.748C355.374 346.149 351.848 346.35 346.975 346.35H341.729C340.64 346.35 339.292 346.293 337.687 346.178C337.63 347.21 337.601 348.701 337.601 350.65C337.601 353.173 337.63 354.95 337.687 355.982C337.859 359.995 340.64 362.002 346.029 362.002C347.864 362.002 349.813 362.059 351.877 362.174L355.059 362.26C356.55 362.26 357.782 362.117 358.757 361.83C359.732 361.486 360.678 361.199 361.595 360.97C362.57 360.683 363.458 360.54 364.261 360.54C365.35 360.54 366.182 360.97 366.755 361.83C367.328 362.633 367.615 363.521 367.615 364.496Z" fill="white"/>
</g>
</g>
<defs>
<filter id="filter0_f_1_8" x="174" y="286" width="221" height="107" filterUnits="userSpaceOnUse" color-interpolation-filters="sRGB">
<feFlood flood-opacity="0" result="BackgroundImageFix"/>
<feBlend mode="normal" in="SourceGraphic" in2="BackgroundImageFix" result="shape"/>
<feGaussianBlur stdDeviation="1" result="effect1_foregroundBlur_1_8"/>
</filter>
<filter id="filter1_i_1_8" x="204.604" y="315.39" width="163.097" height="58.954" filterUnits="userSpaceOnUse" color-interpolation-filters="sRGB">
<feFlood flood-opacity="0" result="BackgroundImageFix"/>
<feBlend mode="normal" in="SourceGraphic" in2="BackgroundImageFix" result="shape"/>
<feColorMatrix in="SourceAlpha" type="matrix" values="0 0 0 0 0 0 0 0 0 0 0 0 0 0 0 0 0 0 127 0" result="hardAlpha"/>
<feOffset dy="4"/>
<feGaussianBlur stdDeviation="2"/>
<feComposite in2="hardAlpha" operator="arithmetic" k2="-1" k3="1"/>
<feColorMatrix type="matrix" values="0 0 0 0 0 0 0 0 0 0 0 0 0 0 0 0 0 0 0.25 0"/>
<feBlend mode="normal" in2="shape" result="effect1_innerShadow_1_8"/>
</filter>
<linearGradient id="paint0_linear_1_8" x1="284.5" y1="288" x2="284.5" y2="391" gradientUnits="userSpaceOnUse">
<stop/>
<stop offset="1" stop-color="#1DDA63"/>
</linearGradient>
<clipPath id="clip0_1_8">
<rect width="400" height="400" fill="white"/>
</clipPath>
</defs>
</svg>
